Coordinates
version=1
nRows=12
nColumns=24
inDegrees=yes

Units are S.I. units (second, meters, Newtons, ...)
Angles are in degrees.

endheader
time	pelvis_tilt	pelvis_list	pelvis_rotation	pelvis_tx	pelvis_ty	pelvis_tz	hip_flexion_r	hip_adduction_r	hip_rotation_r	knee_angle_r	ankle_angle_r	subtalar_angle_r	mtp_angle_r	hip_flexion_l	hip_adduction_l	hip_rotation_l	knee_angle_l	ankle_angle_l	subtalar_angle_l	mtp_angle_l	lumbar_extension	lumbar_bending	lumbar_rotation
      1.33333333	      1.16481557	      5.41323789	     -3.70288986	      0.21725292	      1.06851432	      0.31747749	     15.91437878	     -5.81618913	      1.80543632	    -68.35128109	     -3.61835937	    -15.53506314	      6.62419938	      6.19157950	      9.40115714	     -6.56049919	     -7.93159189	      1.99822767	      1.29024859	      0.60082178	      2.52247759	     -2.99613728	     -0.12598705
      1.33750000	      1.20189647	      5.44563374	     -3.68045692	      0.22218114	      1.06900214	      0.31724307	     16.50164591	     -5.76972079	      2.01293226	    -68.25439670	     -3.25409889	    -15.62437130	      6.57443003	      5.78160034	      9.48347996	     -6.44679072	     -7.77950796	      2.11153243	      1.35852385	      0.57863027	      2.43981947	     -2.96541835	     -0.17276581
      1.34166667	      1.21684019	      5.44618703	     -3.62854937	      0.22712776	      1.06947414	      0.31714762	     17.07930535	     -5.66897845	      2.20155044	    -68.09678323	     -2.61220949	    -15.64866290	      6.48257815	      5.40463138	      9.51068732	     -6.41352789	     -7.67253887	      2.32961911	      1.40400381	      0.53296953	      2.37464705	     -3.01573830	     -0.23373783
      1.34583333	      1.23022451	      5.46926174	     -3.59146324	      0.23206649	      1.06990886	      0.31700872	     17.65349731	     -5.59552512	      2.40963015	    -67.88252582	     -2.09050651	    -15.57484168	      6.38401991	      5.02351177	      9.57036715	     -6.33014845	     -7.54056842	      2.50603670	      1.48811109	      0.48097554	      2.32175317	     -3.03867900	     -0.30508450
      1.35000000	      1.25786899	      5.50181710	     -3.56467761	      0.23699263	      1.07033272	      0.31682986	     18.20182829	     -5.53682045	      2.62419324	    -67.60097477	     -1.74440603	    -15.53832901	      6.32366552	      4.61833591	      9.64924012	     -6.20485389	     -7.38261683	      2.61853751	      1.56585065	      0.44825230	      2.25652922	     -3.01985970	     -0.36241776
      1.35416667	      1.27846444	      5.52199214	     -3.52520611	      0.24195001	      1.07074258	      0.31672397	     18.73093020	     -5.45533195	      2.82441612	    -67.25663686	     -1.30876676	    -15.49765013	      6.26706046	      4.21839603	      9.70583466	     -6.09394611	     -7.22872309	      2.77093215	      1.61767778	      0.41592846	      2.19853660	     -3.03640533	     -0.41991808
      1.35833333	      1.30052730	      5.53800653	     -3.47700716	      0.24689120	      1.07112919	      0.31662428	     19.23965240	     -5.36955767	      3.01821627	    -66.85564591	     -0.83698531	    -15.39870232	      6.20358515	      3.81931383	      9.75657356	     -5.98374263	     -7.08428815	      2.94073061	      1.66549367	      0.37718945	      2.13853533	     -3.05559593	     -0.48811620
      1.36250000	      1.34534081	      5.53472501	     -3.38402270	      0.25181391	      1.07155350	      0.31653412	     19.68828569	     -5.27160009	      3.16808270	    -66.38567098	     -0.25861513	    -15.13324899	      6.08681523	      3.40266361	      9.78392508	     -5.90412357	     -6.96207211	      3.14039183	      1.68497412	      0.29957969	      2.02426899	     -3.10764932	     -0.59825988
      1.36666667	      1.36345390	      5.56728961	     -3.35289512	      0.25677737	      1.07188151	      0.31643735	     20.17328525	     -5.20143222	      3.37609999	    -65.86122505	     -0.02689034	    -15.08120340	      6.03690802	      2.99465594	      9.85694898	     -5.76033799	     -6.78194825	      3.21404747	      1.73582599	      0.26681207	      1.97619873	     -3.11008260	     -0.65113408
      1.37083333	      1.35425693	      5.56969670	     -3.28256068	      0.26173551	      1.07217348	      0.31647032	     20.65079377	     -5.08586342	      3.54984726	    -65.25442986	      0.16727930	    -15.06905395	      6.01572340	      2.62661142	      9.87818215	     -5.66924264	     -6.63523874	      3.28282641	      1.75144402	      0.25283600	      1.89807662	     -3.14865071	     -0.67849469
      1.37500000	      1.42048670	      5.58920689	     -3.20505744	      0.26669128	      1.07253632	      0.31629306	     21.02895307	     -5.02732447	      3.69106514	    -64.63184877	      0.82596142	    -14.86848618	      5.91544747	      2.16274858	      9.94712449	     -5.49283762	     -6.46278723	      3.55206375	      1.69873243	      0.17815895	      1.82414260	     -3.17611205	     -0.80621463
      1.37916667	      1.40164037	      5.61757850	     -3.15329781	      0.27165184	      1.07274080	      0.31632257	     21.49147980	     -4.94014222	      3.88027878	    -63.92496563	      0.94919957	    -14.84792933	      5.89558802	      1.79710026	     10.00136981	     -5.38334274	     -6.29017700	      3.58372012	      1.72950728	      0.16413193	      1.75559456	     -3.21368147	     -0.83404468
